<svg width="16" height="16" viewBox="0 0 16 16" fill="none" xmlns="http://www.w3.org/2000/svg">
<path d="M15.6364 1.6364C15.9878 1.28493 15.9878 0.715082 15.6364 0.36361C15.2849 0.0121381 14.7151 0.0121381 14.3636 0.36361L7.99998 6.72721L1.63637 0.36361C1.2849 0.0121381 0.715051 0.0121381 0.363579 0.36361C0.0121076 0.715082 0.0121076 1.28493 0.363579 1.6364L6.72718 8.00001L0.363579 14.3636C0.0121076 14.7151 0.0121076 15.2849 0.363579 15.6364C0.715051 15.9879 1.2849 15.9879 1.63637 15.6364L7.99998 9.2728L14.3636 15.6364C14.7151 15.9879 15.2849 15.9879 15.6364 15.6364C15.9878 15.2849 15.9878 14.7151 15.6364 14.3636L9.27277 8.00001L15.6364 1.6364Z" fill="#ffffff"/>
</svg>
