<svg width="48" height="48" viewBox="0 0 48 48" fill="none" xmlns="http://www.w3.org/2000/svg">
<path d="M25.3278 33.1812C15.6984 33.1812 10.2079 26.5927 9.98267 15.6117H14.8255C14.9804 23.6644 18.5281 27.0713 21.3437 27.7752V15.6117H25.891V22.5523C28.6643 22.2566 31.5926 19.089 32.5781 15.5977H37.1112C36.7416 17.405 36.0032 19.1166 34.9423 20.6257C33.8813 22.1348 32.5206 23.4089 30.945 24.3683C32.7033 25.2435 34.256 26.4814 35.5009 28.0005C36.7458 29.5196 37.6545 31.2853 38.1671 33.1812H33.1694C32.0994 29.8447 29.4246 27.2543 25.891 26.9024V33.1812H25.3419H25.3278Z" fill="white"/>
</svg>
