<svg width="18" height="20" viewBox="0 0 18 20" fill="none" xmlns="http://www.w3.org/2000/svg">
<path d="M15.71 17.5C14.88 18.74 14 19.95 12.66 19.97C11.32 20 10.89 19.18 9.37 19.18C7.84 19.18 7.37 19.95 6.1 20C4.79 20.05 3.8 18.68 2.96 17.47C1.25 15 -0.0599996 10.45 1.7 7.39C2.57 5.87 4.13 4.91 5.82 4.88C7.1 4.86 8.32 5.75 9.11 5.75C9.89 5.75 11.37 4.68 12.92 4.84C13.57 4.87 15.39 5.1 16.56 6.82C16.47 6.88 14.39 8.1 14.41 10.63C14.44 13.65 17.06 14.66 17.09 14.67C17.06 14.74 16.67 16.11 15.71 17.5ZM10 1.5C10.73 0.67 11.94 0.04 12.94 0C13.07 1.17 12.6 2.35 11.9 3.19C11.21 4.04 10.07 4.7 8.95 4.61C8.8 3.46 9.36 2.26 10 1.5Z" fill="#ffffff"/>
</svg>
