<svg width="20" height="14" viewBox="0 0 20 14" fill="none" xmlns="http://www.w3.org/2000/svg">
<path d="M0.0999756 1.00004C0.0999756 0.50298 0.502919 0.100037 0.999975 0.100037H19C19.497 0.100037 19.9 0.50298 19.9 1.00004C19.9 1.49709 19.497 1.90004 19 1.90004H0.999975C0.502919 1.90004 0.0999756 1.49709 0.0999756 1.00004Z" fill="#ffffff"/>
<path d="M0.0999756 7.00004C0.0999756 6.50298 0.502919 6.10004 0.999975 6.10004H19C19.497 6.10004 19.9 6.50298 19.9 7.00004C19.9 7.49709 19.497 7.90004 19 7.90004H0.999975C0.502919 7.90004 0.0999756 7.49709 0.0999756 7.00004Z" fill="#ffffff"/>
<path d="M0.999975 12.1C0.502919 12.1 0.0999756 12.503 0.0999756 13C0.0999756 13.4971 0.502919 13.9 0.999975 13.9L19 13.9C19.497 13.9 19.9 13.4971 19.9 13C19.9 12.503 19.497 12.1 19 12.1L0.999975 12.1Z" fill="#ffffff"/>
</svg>
