<svg width="18" height="18" viewBox="0 0 18 18" fill="none" xmlns="http://www.w3.org/2000/svg">
<path d="M17.6484 7.36875H9.18047V10.8492H14.018C13.8094 11.9742 13.1766 12.9258 12.2227 13.5633C11.4164 14.1023 10.3875 14.4211 9.17812 14.4211C6.83671 14.4211 4.85625 12.8391 4.14843 10.7133C3.97031 10.1742 3.86718 9.59766 3.86718 9.00469C3.86718 8.41172 3.97031 7.83516 4.14843 7.29609C4.85859 5.17266 6.83906 3.59063 9.18047 3.59063C10.5 3.59063 11.6836 4.04531 12.6164 4.93594L15.1945 2.35547C13.6359 0.902344 11.6039 0.0117188 9.18047 0.0117188C5.66718 0.0117188 2.62734 2.02734 1.14843 4.96641C0.53906 6.18047 0.192184 7.55391 0.192184 9.00703C0.192184 10.4602 0.53906 11.8312 1.14843 13.0453C2.62734 15.9844 5.66718 18 9.18047 18C11.6086 18 13.643 17.1938 15.1289 15.8203C16.8281 14.2547 17.8102 11.9484 17.8102 9.20859C17.8102 8.57109 17.7539 7.95937 17.6484 7.36875Z" fill="#ffffff"/>
</svg>
