<svg width="135" height="30" viewBox="0 0 135 30" fill="none" xmlns="http://www.w3.org/2000/svg">
<path d="M84.3838 29.3998V9.16272H89.0689V29.3998H84.3838Z" fill="white"/>
<path d="M86.7275 6.82015C86.2916 6.82015 85.8978 6.75687 85.5463 6.62972C85.176 6.49554 84.8525 6.29046 84.576 6.0139C84.0392 5.4766 83.7697 4.7723 83.7697 3.90219C83.7697 3.74516 83.7791 3.5934 83.7978 3.44692C83.8166 3.29926 83.8471 3.15747 83.8869 3.02094C84.0182 2.56333 84.2596 2.16548 84.6135 1.82856C85.1783 1.26548 85.8814 0.983643 86.7275 0.983643C87.5455 0.983643 88.2486 1.25259 88.8392 1.78989C89.4275 2.32778 89.7228 3.03149 89.7228 3.90219C89.7228 4.7723 89.4392 5.4766 88.8767 6.0139C88.3142 6.55179 87.597 6.82015 86.7275 6.82015Z" fill="white"/>
<path d="M115.867 2.25102V29.3998H120.552V21.3742H123.74L129.154 29.3998H134.606L127.502 18.8014L134.069 9.16272H128.807L123.47 17.2656H120.552V2.25102H115.867Z" fill="white"/>
<path d="M93.2267 9.16272V29.3998H97.9119V19.6844C97.9119 18.4299 98.104 17.3166 98.4884 16.344C98.8705 15.3455 99.447 14.5516 100.216 13.9627C100.985 13.3738 101.917 13.0797 103.019 13.0797C103.408 13.0797 103.764 13.1113 104.088 13.1746C104.505 13.2561 104.866 13.3908 105.168 13.5789C105.707 13.9117 106.117 14.3594 106.399 14.9231C106.488 15.0854 106.567 15.2535 106.638 15.4287C106.67 15.5078 106.701 15.5881 106.729 15.6695C106.774 15.7973 106.816 15.9279 106.851 16.0621C106.919 16.3111 106.973 16.5713 107.013 16.8426C107.116 17.534 107.165 18.2506 107.165 18.9936V29.3998H111.85V18.2254C111.85 16.4846 111.62 14.9102 111.159 13.5022C110.699 12.0942 109.905 10.9674 108.78 10.1231C108.133 9.6262 107.343 9.27522 106.41 9.07073C106.213 9.02679 106.009 8.98987 105.799 8.9594L105.588 8.93245C105.166 8.88147 104.718 8.85569 104.247 8.85569C103.556 8.85569 102.815 8.95823 102.02 9.16272C101.655 9.24475 101.299 9.35139 100.952 9.48264C100.542 9.63675 100.143 9.82483 99.754 10.0463C99.5689 10.1518 99.3908 10.2672 99.2173 10.3926C99.0134 10.542 98.8165 10.7061 98.6291 10.8842C98.3595 11.1385 98.1087 11.4221 97.872 11.7356L97.6048 9.16272H93.2267Z" fill="white"/>
<path d="M62.9995 2.25102V29.3998H81.9299V25.0223H67.7994V2.25102H62.9995Z" fill="white"/>
<path d="M0.599609 2.99985H5.3996V29.3998H0.599609V2.99985Z" fill="white"/>
<path d="M29.3995 24.5998V29.3998H55.7995V24.5998H29.3995Z" fill="white"/>
<path d="M7.79959 2.99985H12.5996V29.3998H7.79959V2.99985Z" fill="white"/>
<path d="M29.3995 17.3998V22.1998H55.7995V17.3998H29.3995Z" fill="white"/>
<path d="M14.9996 2.99985H19.7996V29.3998H14.9996V2.99985Z" fill="white"/>
<path d="M29.3995 10.1998V14.9998H55.7995V10.1998H29.3995Z" fill="white"/>
<path d="M22.1996 2.99985H26.9995V29.3998H22.1996V2.99985Z" fill="white"/>
<path d="M29.3995 2.99985V7.79984H55.7995V2.99985H29.3995Z" fill="white"/>
</svg>
