<svg width="32" height="32" viewBox="0 0 32 32" fill="none" xmlns="http://www.w3.org/2000/svg">
<path d="M3.05142 15.2051L19.729 8.477C21.3753 7.77621 26.9585 5.53358 26.9585 5.53358C26.9585 5.53358 29.5354 4.55251 29.3205 6.93517C29.2489 7.91624 28.6766 11.3505 28.1037 15.0646L26.3144 26.0676C26.3144 26.0676 26.1712 27.6795 24.9523 27.9598C23.7334 28.2401 21.7313 26.9787 21.3736 26.6983C21.0874 26.4881 16.0053 23.3343 14.1442 21.7925C13.6431 21.3722 13.0706 20.5309 14.2158 19.5499C16.7926 17.2371 19.8706 14.3636 21.7313 12.5415C22.5903 11.7005 23.4492 9.73815 19.8704 12.1212L9.77797 18.7792C9.77797 18.7792 8.63256 19.48 6.48538 18.8493C4.3382 18.2186 1.83295 17.3776 1.83295 17.3776C1.83295 17.3776 0.11504 16.3264 3.04977 15.2053L3.05142 15.2051Z" fill="white"/>
</svg>
