<svg width="22" height="20" viewBox="0 0 22 20" fill="none" xmlns="http://www.w3.org/2000/svg">
<path d="M7.00001 0.100006C3.18924 0.100006 0.100006 3.18924 0.100006 7.00001C0.100006 10.8108 3.18924 13.9 7.00001 13.9H8.15817C8.1198 13.6054 8.1 13.305 8.1 13C8.1 9.18924 11.1892 6.10001 15 6.10001C17.7356 6.10001 20.0994 7.69197 21.2155 10C21.6541 9.09289 21.9 8.07517 21.9 7.00001C21.9 3.18924 18.8108 0.100006 15 0.100006H7.00001Z" fill="#02E4C0"/>
<path fill-rule="evenodd" clip-rule="evenodd" d="M15 8.10001C12.2938 8.10001 10.1 10.2938 10.1 13C10.1 15.7062 12.2938 17.9 15 17.9C16.0279 17.9 16.9819 17.5835 17.7698 17.0426L20.3636 19.6364C20.7151 19.9879 21.2849 19.9879 21.6364 19.6364C21.9879 19.2849 21.9879 18.7151 21.6364 18.3636L19.0426 15.7698C19.5835 14.9819 19.9 14.0279 19.9 13C19.9 10.2938 17.7062 8.10001 15 8.10001ZM17.6364 11.3636C17.9879 11.7151 17.9879 12.2849 17.6364 12.6364L15.1364 15.1364C14.9676 15.3052 14.7387 15.4 14.5 15.4C14.2613 15.4 14.0324 15.3052 13.8636 15.1364L12.3636 13.6364C12.0121 13.2849 12.0121 12.7151 12.3636 12.3636C12.7151 12.0121 13.2849 12.0121 13.6364 12.3636L14.5 13.2272L16.3636 11.3636C16.7151 11.0121 17.2849 11.0121 17.6364 11.3636Z" fill="#02E4C0"/>
</svg>
