<svg width="20" height="20" viewBox="0 0 20 20" fill="none" xmlns="http://www.w3.org/2000/svg">
<path d="M4.93952 0.100008C4.0484 0.0999686 3.29042 0.0999352 2.68553 0.18126C2.0411 0.267901 1.43737 0.461416 0.949387 0.949402C0.461401 1.43739 0.267886 2.04112 0.181245 2.68554C0.0999199 3.29043 0.0999533 4.04836 0.0999926 4.93949L0.0999962 5.00001C0.0999962 5.49707 0.50294 5.90001 0.999996 5.90001H19C19.4971 5.90001 19.9 5.49707 19.9 5.00001V4.93954C19.9 4.04842 19.9001 3.29043 19.8187 2.68554C19.7321 2.04112 19.5386 1.43739 19.0506 0.949402C18.5626 0.461417 17.9589 0.267901 17.3145 0.18126C16.7096 0.0999352 15.9516 0.0999686 15.0605 0.100008H4.93952Z" fill="#02E4C0"/>
<path d="M0.999996 8.10001C0.50294 8.10001 0.0999962 8.50295 0.0999962 9.00001L0.0999926 15.0605C0.0999533 15.9516 0.0999199 16.7096 0.181245 17.3145C0.267886 17.9589 0.461401 18.5626 0.949387 19.0506C1.43737 19.5386 2.0411 19.7321 2.68553 19.8188C3.29041 19.9001 4.04832 19.9 4.93943 19.9L5 19.9C5.49705 19.9 5.9 19.4971 5.9 19V9.00001C5.9 8.50295 5.49705 8.10001 5 8.10001H0.999996Z" fill="#02E4C0"/>
<path d="M9.00001 8.10001C8.50295 8.10001 8.10001 8.50295 8.10001 9.00001V19C8.10001 19.4971 8.50295 19.9 9.00001 19.9L15.0605 19.9C15.9516 19.9 16.7096 19.9001 17.3145 19.8188C17.9589 19.7321 18.5626 19.5386 19.0506 19.0506C19.5386 18.5626 19.7321 17.9589 19.8188 17.3145C19.9001 16.7096 19.9 15.9517 19.9 15.0606L19.9 9.00001C19.9 8.50295 19.4971 8.10001 19 8.10001H9.00001Z" fill="#02E4C0"/>
</svg>
