<svg width="32" height="32" viewBox="0 0 32 32" fill="none" xmlns="http://www.w3.org/2000/svg">
<path fill-rule="evenodd" clip-rule="evenodd" d="M2.96257 7.2157C1.48601 8.71968 1.44145 10.6152 1.35234 14.4062C1.34007 14.9279 1.33325 15.4606 1.33325 16.0002C1.33325 16.5397 1.34007 17.0724 1.35234 17.5941C1.44145 21.3851 1.48601 23.2806 2.96257 24.7846C4.43914 26.2886 6.43185 26.3721 10.4173 26.5392C12.2133 26.6145 14.1328 26.6668 15.9999 26.6668C17.8671 26.6668 19.7865 26.6145 21.5825 26.5392C25.568 26.3721 27.5607 26.2886 29.0373 24.7846C30.5138 23.2806 30.5584 21.3851 30.6475 17.5941C30.6598 17.0724 30.6666 16.5397 30.6666 16.0002C30.6666 15.4606 30.6598 14.9279 30.6475 14.4062C30.5584 10.6152 30.5138 8.71968 29.0373 7.2157C27.5607 5.71172 25.568 5.62817 21.5825 5.46109C19.7865 5.38579 17.8671 5.3335 15.9999 5.3335C14.1328 5.3335 12.2133 5.38579 10.4173 5.46109C6.43185 5.62817 4.43914 5.71172 2.96257 7.2157ZM11.9999 21.3335L21.3333 16.0002L11.9999 10.6668V21.3335Z" fill="white"/>
</svg>
