<svg width="32" height="32" viewBox="0 0 32 32" fill="none" xmlns="http://www.w3.org/2000/svg">
<path d="M30.0193 15.3509H30.0122C18.0026 15.2197 16.7636 11.3816 16.6522 1.98898C16.6503 1.80786 16.7245 1.63442 16.8577 1.51154C16.9908 1.38802 17.1713 1.32978 17.3505 1.34386C24.4186 1.9877 30.0141 7.58514 30.6567 14.6527C30.6727 14.8331 30.6119 15.0117 30.489 15.1448C30.3681 15.276 30.1978 15.3509 30.0193 15.3509Z" fill="white"/>
<path d="M16.6529 30.0107C16.7642 20.618 18.0026 16.78 30.0122 16.6488C30.1933 16.6558 30.3655 16.7217 30.489 16.8548C30.6125 16.988 30.6727 17.1665 30.6567 17.347C30.0148 24.4152 24.4193 30.012 17.3511 30.6558C17.3319 30.6577 17.3121 30.6584 17.2929 30.6584C17.1329 30.6584 16.9773 30.5976 16.8583 30.4881C16.7252 30.3652 16.6509 30.1918 16.6529 30.0107Z" fill="white"/>
<path d="M14.6067 1.34696C7.56097 2.00936 1.98337 7.60552 1.34401 14.6538C1.32801 14.8343 1.38817 15.0129 1.51169 15.146C1.63265 15.2772 1.80353 15.3514 1.98145 15.3514H1.98913C13.959 15.2138 15.1949 11.3777 15.3075 1.99144C15.3094 1.81032 15.2346 1.63624 15.1014 1.51336C14.967 1.39048 14.7872 1.33032 14.6067 1.34696Z" fill="white"/>
<path d="M1.51102 16.8536C1.63326 16.7205 1.78942 16.6257 1.98846 16.6481C13.959 16.7857 15.1942 20.6219 15.3069 30.0075C15.3088 30.1886 15.2339 30.3627 15.1008 30.4856C14.9817 30.595 14.8269 30.6552 14.6669 30.6552C14.647 30.6552 14.6265 30.6545 14.6067 30.6526C7.56094 29.9902 1.9827 24.3941 1.34334 17.3457C1.32734 17.1653 1.38814 16.9867 1.51102 16.8536Z" fill="white"/>
</svg>
